<svg xmlns="http://www.w3.org/2000/svg" version="1.1" xmlns:xlink="http://www.w3.org/1999/xlink" xmlns:svgjs="http://svgjs.dev/svgjs" viewBox="0 0 800 400"><path d="M469.5067138671875,45.73991012573242C445.8893788655599,46.03886413574219,376.2331949869792,43.79671287536621,327.8027038574219,47.533634185791016C279.37221272786456,51.27055549621582,219.88042068481445,53.21375592549642,178.92376708984375,68.16143798828125C137.96711349487305,83.10912005106609,98.65471013387044,104.93272908528647,82.06278228759766,137.2197265625C65.47085444132487,169.50672403971353,56.80119959513347,227.0553181966146,79.37220001220703,261.8834228515625C101.9432004292806,296.71152750651044,158.59491602579752,328.69956970214844,217.48878479003906,346.1883544921875C276.3826535542806,363.67713928222656,363.37816619873047,368.9088083902995,432.73541259765625,366.8161315917969C502.09265899658203,364.72345479329425,585.2017720540365,350.9716033935547,633.6322631835938,333.6322937011719C682.062754313151,316.29298400878906,717.6382344563802,298.6547139485677,723.318359375,262.7802734375C728.9984842936198,226.90583292643228,709.267567952474,161.58445556958517,667.7130126953125,118.38565063476562C626.158457438151,75.18684569994608,506.2780253092448,22.720478296279907,473.99102783203125,3.5874438285827637" fill="none" stroke-width="25" stroke="url(&quot;#SvgjsLinearGradient1014&quot;)" stroke-linecap="round"></path><defs><linearGradient id="SvgjsLinearGradient1014"><stop stop-color="hsl(37, 99%, 67%)" offset="0"></stop><stop stop-color="hsl(316, 73%, 52%)" offset="1"></stop></linearGradient></defs></svg>